M48
INCH
T01C0.0191
T02C0.0433
%
T01
X+009252Y+015815
X+009565Y+014565
X+007378Y+014190
X+007628Y+011252
X+007690Y+010565
X+006002Y+011190
X+005628Y+011565
X+007440Y+005628
X+008565Y+005690
T02
X+004940Y+015440
X+004940Y+014440
X+004940Y+013440
X+004940Y+012440
X+004940Y+011440
X+004940Y+010440
X+004940Y+009440
X+004940Y+008440
X+004940Y+007440
X+004940Y+006440
X+010940Y+006440
X+010940Y+007440
X+010940Y+008440
X+010940Y+009440
X+010940Y+010440
X+010940Y+011440
X+010940Y+012440
X+010940Y+013440
X+010940Y+014440
X+010940Y+015440
T00
M30
