G04 DipTrace 3.0.0.2*
G04 MSP4302311_20.gto*
%MOIN*%
G04 #@! TF.FileFunction,Legend,Top*
G04 #@! TF.Part,Single*
%ADD10C,0.009843*%
%ADD37C,0.00772*%
%FSLAX26Y26*%
G04*
G70*
G90*
G75*
G01*
G04 TopSilk*
%LPD*%
X891413Y682071D2*
D10*
Y630929D1*
X891609Y819571D2*
Y768429D1*
X888322Y1327640D2*
X837180D1*
X544002Y1594020D2*
X444000D1*
Y593980D1*
X544002D1*
Y1594020D1*
X1144002D2*
X1044000D1*
Y593980D1*
X1144002D1*
Y1594020D1*
X738941Y1221272D2*
Y961413D1*
X864912Y1221272D2*
Y961413D1*
X738941D2*
X864912D1*
X738941Y1221272D2*
X782238D1*
X821615D2*
X864912D1*
X782238D2*
G03X821615Y1221272I19689J-9D01*
G01*
X812817Y747312D2*
D37*
X810441Y752066D1*
X805632Y756874D1*
X800879Y759251D1*
X791317D1*
X786509Y756874D1*
X781756Y752066D1*
X779324Y747312D1*
X776947Y740127D1*
Y728134D1*
X779324Y721004D1*
X781756Y716196D1*
X786509Y711442D1*
X791317Y709011D1*
X800879D1*
X805632Y711442D1*
X810441Y716196D1*
X812817Y721004D1*
X852188Y709011D2*
Y759195D1*
X828256Y725757D1*
X864126D1*
X814201Y884812D2*
X811824Y889566D1*
X807016Y894374D1*
X802263Y896751D1*
X792701D1*
X787893Y894374D1*
X783139Y889566D1*
X780708Y884812D1*
X778331Y877627D1*
Y865634D1*
X780708Y858504D1*
X783139Y853696D1*
X787893Y848942D1*
X792701Y846511D1*
X802263D1*
X807016Y848942D1*
X811824Y853696D1*
X814201Y858504D1*
X858325Y896695D2*
X834449D1*
X832072Y875196D1*
X834449Y877572D1*
X841634Y880004D1*
X848763D1*
X855948Y877572D1*
X860757Y872819D1*
X863134Y865634D1*
Y860881D1*
X860757Y853696D1*
X855948Y848887D1*
X848763Y846511D1*
X841634D1*
X834449Y848887D1*
X832072Y851319D1*
X829640Y856072D1*
X771938Y1393202D2*
X767185Y1390825D1*
X762377Y1386017D1*
X760000Y1381264D1*
Y1371702D1*
X762377Y1366893D1*
X767185Y1362140D1*
X771938Y1359708D1*
X779123Y1357332D1*
X791117D1*
X798247Y1359708D1*
X803055Y1362140D1*
X807808Y1366893D1*
X810240Y1371702D1*
Y1381263D1*
X807808Y1386017D1*
X803055Y1390825D1*
X798247Y1393202D1*
X767185Y1437326D2*
X762432Y1434949D1*
X760055Y1427764D1*
Y1423011D1*
X762432Y1415826D1*
X769617Y1411018D1*
X781555Y1408641D1*
X793493D1*
X803055Y1411018D1*
X807863Y1415826D1*
X810240Y1423011D1*
Y1425388D1*
X807863Y1432517D1*
X803055Y1437326D1*
X795870Y1439702D1*
X793493D1*
X786308Y1437326D1*
X781555Y1432517D1*
X779179Y1425388D1*
Y1423011D1*
X781555Y1415826D1*
X786308Y1411018D1*
X793493Y1408641D1*
X508960Y1705806D2*
Y1667559D1*
X506584Y1660374D1*
X504152Y1657998D1*
X499399Y1655566D1*
X494590D1*
X489837Y1657998D1*
X487460Y1660374D1*
X485028Y1667559D1*
Y1672312D1*
X529208Y1705750D2*
X555461D1*
X541146Y1686627D1*
X548331D1*
X553084Y1684251D1*
X555461Y1681874D1*
X557893Y1674689D1*
Y1669936D1*
X555461Y1662751D1*
X550708Y1657942D1*
X543523Y1655566D1*
X536338D1*
X529208Y1657942D1*
X526831Y1660374D1*
X524399Y1665127D1*
X1107772Y1705806D2*
Y1667559D1*
X1105395Y1660374D1*
X1102963Y1657998D1*
X1098210Y1655566D1*
X1093402D1*
X1088649Y1657998D1*
X1086272Y1660374D1*
X1083840Y1667559D1*
Y1672312D1*
X1147143Y1655566D2*
Y1705750D1*
X1123211Y1672312D1*
X1159081D1*
X740385Y1641570D2*
X761885D1*
X769070Y1644001D1*
X771502Y1646378D1*
X773879Y1651131D1*
Y1655940D1*
X771502Y1660693D1*
X769070Y1663125D1*
X761885Y1665501D1*
X740385D1*
Y1615261D1*
X757132Y1641570D2*
X773879Y1615261D1*
X791750Y1653508D2*
Y1655884D1*
X794126Y1660693D1*
X796503Y1663069D1*
X801312Y1665446D1*
X810873D1*
X815626Y1663069D1*
X818003Y1660693D1*
X820435Y1655884D1*
Y1651131D1*
X818003Y1646323D1*
X813250Y1639193D1*
X789318Y1615261D1*
X822811D1*
X760714Y1294495D2*
Y1258625D1*
X763090Y1251440D1*
X767899Y1246687D1*
X775084Y1244255D1*
X779837D1*
X787022Y1246687D1*
X791830Y1251440D1*
X794207Y1258625D1*
Y1294495D1*
X812078Y1282502D2*
Y1284878D1*
X814455Y1289687D1*
X816831Y1292064D1*
X821640Y1294440D1*
X831201D1*
X835954Y1292064D1*
X838331Y1289687D1*
X840763Y1284878D1*
Y1280125D1*
X838331Y1275317D1*
X833578Y1268187D1*
X809646Y1244255D1*
X843139D1*
M02*
