G04 DipTrace 3.0.0.2*
G04 MSP4302311_20.gbl*
%MOIN*%
G04 #@! TF.FileFunction,Copper,L2,Bot*
G04 #@! TF.Part,Single*
G04 #@! TA.AperFunction,Conductor*
%ADD14C,0.012992*%
G04 #@! TA.AperFunction,ComponentPad*
%ADD18R,0.066929X0.066929*%
%ADD19C,0.066929*%
G04 #@! TA.AperFunction,ViaPad*
%ADD21C,0.04*%
%FSLAX26Y26*%
G04*
G70*
G90*
G75*
G01*
G04 Bottom*
%LPD*%
X925249Y1581500D2*
D14*
X831500D1*
X494000Y1244000D1*
X925249Y1581500D2*
Y1519000D1*
X662751Y1256500D1*
Y1181500D1*
X600249Y1119000D1*
X744000Y562751D2*
X694000D1*
Y1056499D1*
X762751Y1125249D1*
X737751Y1419000D2*
Y1412751D1*
X575249Y1250249D1*
Y1168999D1*
X562751Y1156500D1*
X856500Y569000D2*
Y969000D1*
X769000Y1056500D1*
X956500Y1456500D2*
Y1400251D1*
X569000Y1012751D1*
X525249D1*
X494000Y1044000D1*
D21*
X925249Y1581500D3*
X762751Y1125249D3*
X769000Y1056500D3*
X856500Y569000D3*
X744000Y562751D3*
X956500Y1456500D3*
X600249Y1119000D3*
X562751Y1156500D3*
X737751Y1419000D3*
D18*
X494000Y1544000D3*
D19*
Y1444000D3*
Y1344000D3*
Y1244000D3*
Y1144000D3*
Y1044000D3*
Y944000D3*
Y844000D3*
Y744000D3*
Y644000D3*
D18*
X1094000Y1544000D3*
D19*
Y1444000D3*
Y1344000D3*
Y1244000D3*
Y1144000D3*
Y1044000D3*
Y944000D3*
Y844000D3*
Y744000D3*
Y644000D3*
M02*
